<svg width="42" height="42" viewBox="0 0 42 42" fill="none" xmlns="http://www.w3.org/2000/svg">
<rect width="41" height="41" transform="translate(0.5 0.5)" fill="#D9D9D9"/>
<path fill-rule="evenodd" clip-rule="evenodd" d="M21 3.5C11.335 3.5 3.5 11.335 3.5 21C3.5 30.665 11.335 38.5 21 38.5C30.665 38.5 38.5 30.665 38.5 21C38.5 11.335 30.665 3.5 21 3.5ZM0.5 21C0.5 9.67816 9.67816 0.5 21 0.5C32.3218 0.5 41.5 9.67816 41.5 21C41.5 32.3218 32.3218 41.5 21 41.5C9.67816 41.5 0.5 32.3218 0.5 21Z" fill="white"/>
<path d="M16.04 31V28.72H19.928V16.432H16.736V14.68C18.416 14.392 19.568 13.96 20.6 13.336H22.688V28.72H26.144V31H16.04Z" fill="white"/>
</svg>
