<svg width="31" height="32" viewBox="0 0 31 32" fill="none" xmlns="http://www.w3.org/2000/svg">
<path fill-rule="evenodd" clip-rule="evenodd" d="M15.4997 4.08337C8.91828 4.08337 3.58301 9.41865 3.58301 16C3.58301 22.5814 8.91828 27.9167 15.4997 27.9167C22.0811 27.9167 27.4163 22.5814 27.4163 16C27.4163 9.41865 22.0811 4.08337 15.4997 4.08337ZM1.58301 16C1.58301 8.31408 7.81371 2.08337 15.4997 2.08337C23.1856 2.08337 29.4163 8.31408 29.4163 16C29.4163 23.686 23.1856 29.9167 15.4997 29.9167C7.81371 29.9167 1.58301 23.686 1.58301 16Z" fill="black"/>
<path fill-rule="evenodd" clip-rule="evenodd" d="M15.5 15C16.0523 15 16.5 15.4477 16.5 16V21.1667C16.5 21.719 16.0523 22.1667 15.5 22.1667C14.9477 22.1667 14.5 21.719 14.5 21.1667V16C14.5 15.4477 14.9477 15 15.5 15Z" fill="black"/>
<path fill-rule="evenodd" clip-rule="evenodd" d="M14.5 10.8334C14.5 10.2811 14.9477 9.83337 15.5 9.83337H15.5137C16.066 9.83337 16.5137 10.2811 16.5137 10.8334C16.5137 11.3857 16.066 11.8334 15.5137 11.8334H15.5C14.9477 11.8334 14.5 11.3857 14.5 10.8334Z" fill="black"/>
</svg>
