<svg width="283" height="22" viewBox="0 0 283 22" fill="none" xmlns="http://www.w3.org/2000/svg">
<path d="M47.0789 16.4459H53.0217V20.4398H38.4414L45.8518 12.3798C46.9105 11.2249 47.921 9.58884 47.921 7.92871C47.921 6.77383 47.103 5.57084 45.8518 5.57084C44.5767 5.57084 43.8789 6.55729 43.8789 7.78435C43.8789 8.02494 43.903 8.2896 43.9511 8.55426H38.7542C38.8985 4.39191 41.5451 1.5769 45.8278 1.5769C49.6292 1.5769 52.8292 4.07913 52.8292 8.02495C52.8292 10.6234 51.7465 12.1392 49.8939 13.8234L47.0789 16.4459Z" fill="white"/>
<path d="M8.63749 16.4459H14.5803V20.4398H0L7.41044 12.3798C8.46907 11.2249 9.47958 9.58884 9.47958 7.92871C9.47958 6.77383 8.66155 5.57084 7.41044 5.57084C6.13526 5.57084 5.43753 6.55729 5.43753 7.78435C5.43753 8.02494 5.46159 8.2896 5.50971 8.55426H0.312778C0.457137 4.39191 3.10372 1.5769 7.38638 1.5769C11.1878 1.5769 14.3878 4.07913 14.3878 8.02495C14.3878 10.6234 13.3051 12.1392 11.4525 13.8234L8.63749 16.4459Z" fill="white"/>
<circle cx="26.5954" cy="11.1874" r="10.0573" fill="black"/>
<path fill-rule="evenodd" clip-rule="evenodd" d="M63.9193 12.5493V17.0777C62.7741 16.8277 61.746 16.2641 60.9297 15.4813L63.9193 12.5493ZM66.6012 9.91895L66.6561 9.86509L66.6012 9.80911V4.85003C69.413 5.4639 71.5181 7.96804 71.5181 10.9639C71.5181 13.9597 69.413 16.4639 66.6012 17.0777L66.6012 9.91895ZM63.9193 8.79277L59.417 13.2085C59.1492 12.5117 59.0024 11.7549 59.0024 10.9639C59.0024 7.96804 61.1076 5.4639 63.9193 4.85003V8.79277ZM65.2603 21.2446C70.9382 21.2446 75.541 16.6418 75.541 10.9639C75.541 5.28596 70.9382 0.683105 65.2603 0.683105C59.5824 0.683105 54.9795 5.28596 54.9795 10.9639C54.9795 16.6418 59.5824 21.2446 65.2603 21.2446Z" fill="black"/>
<path d="M259.55 1.48804H282.722V20.8065H277.873V20.5513H264.399V20.8065H259.55V1.48804ZM264.399 4.49938V17.1827H277.873V4.49938H264.399ZM272.846 7.63831V8.07215H277.516V9.90958H264.781V8.07215H269.426V7.63831H265.088V4.85665H277.184V7.63831H272.846ZM273.79 6.13265H268.482V6.56648H273.79V6.13265ZM277.439 16.7489H264.832V10.3179H277.439V16.7489ZM274.76 11.8236H267.537V15.0646H274.76V11.8236ZM274.3 14.6307H267.971V12.2574H274.3V14.6307ZM271.825 13.0996H270.472V13.712H271.825V13.0996Z" fill="white" stroke="#E72F00" stroke-width="0.5" stroke-miterlimit="10"/>
<path d="M251.256 15.7792C251.613 15.7792 251.86 15.6516 251.996 15.3965C252.132 15.1242 252.2 14.7329 252.2 14.2225C252.2 13.9844 252.192 13.7632 252.174 13.559C252.157 13.3379 252.14 13.1507 252.123 12.9976C253.876 13.5931 255.611 13.9588 257.329 14.0949C257.329 15.8133 257.193 17.1148 256.921 17.9995C256.649 18.8842 256.156 19.5222 255.441 19.9135C254.743 20.2878 253.68 20.5089 252.251 20.577C250.448 20.645 249.146 20.6791 248.347 20.6791C247.394 20.6791 246.467 20.6535 245.565 20.6025C244.085 20.5344 242.996 20.3728 242.298 20.1176C241.618 19.8624 241.175 19.5051 240.971 19.0458C240.784 18.5694 240.691 17.8804 240.691 16.9787V9.04202L240.18 9.09306V10.1904H239.108V13.2273L240.231 12.8955C240.078 14.2566 240.002 15.9154 240.002 17.8719C239.287 18.1951 238.309 18.5354 237.067 18.8927C235.825 19.2329 234.727 19.4966 233.775 19.6838C233.656 17.8974 233.443 16.145 233.137 14.4267C233.494 14.3927 233.877 14.3416 234.285 14.2736V10.1904H233.29V5.44372H234.285V1.79439H239.108V5.44372H239.899V4.47397L240.691 4.42293V1.76887H245.922V4.01461L246.535 3.96357V1.07983H251.383V3.6063L257.559 3.14694C257.559 5.25658 257.491 7.00894 257.355 8.40402C257.219 9.78209 256.93 10.8965 256.487 11.7471C256.062 12.5808 255.416 12.9976 254.548 12.9976C253.816 12.9976 253.042 12.904 252.226 12.7169C252.072 11.9002 251.936 11.2707 251.817 10.8284C251.715 10.3861 251.571 10.0033 251.383 9.68001V14.7585H246.535V8.55714L245.922 8.60818V14.9881C245.922 15.3284 246.033 15.5496 246.254 15.6516C246.475 15.7367 246.807 15.7792 247.249 15.7792H251.256ZM251.383 8.1233V9.39929C251.741 9.36527 252.004 9.26319 252.174 9.09306C252.345 8.90591 252.438 8.55714 252.455 8.04674L251.383 8.1233Z" fill="white" stroke="#E72F00" stroke-width="0.5" stroke-miterlimit="10"/>
<path d="M208.791 5.1885H214.15V4.83122H208.229V1.61572H231.912V4.83122H225.991V5.1885H231.35V9.73103H208.791V5.1885ZM219.586 5.1885H220.555V4.83122H219.586V5.1885ZM214.941 7.05144H213.971V7.53632H214.941V7.05144ZM220.555 7.53632V7.05144H219.586V7.53632H220.555ZM225.2 7.53632H226.17V7.05144H225.2V7.53632ZM231.503 12.4361H208.587V10.0373H231.503V12.4361ZM226.986 15.6261C228.535 16.1535 230.363 16.5959 232.473 16.9531C232.252 17.2424 231.869 17.7102 231.325 18.3567C231.206 18.4928 230.908 18.8501 230.431 19.4286C229.955 20.007 229.581 20.5004 229.309 20.9087C228.237 20.5684 227.08 20.0155 225.838 19.2499C224.613 18.4843 223.601 17.7017 222.801 16.9021V18.5864C222.801 19.2499 222.597 19.7433 222.189 20.0666C221.797 20.3728 221.125 20.5855 220.173 20.7045C219.22 20.8066 217.757 20.8577 215.783 20.8577L215.63 20.2962C215.613 20.2112 215.545 19.973 215.426 19.5817C215.324 19.1904 215.196 18.8416 215.043 18.5354C214.329 19.0458 213.563 19.5136 212.746 19.939C211.947 20.3643 211.19 20.6875 210.475 20.9087C210.203 20.5004 209.829 20.007 209.352 19.4286C208.876 18.8501 208.578 18.4928 208.459 18.3567C207.915 17.7102 207.532 17.2424 207.311 16.9531C209.42 16.5959 211.249 16.1535 212.797 15.6261H208.127V12.7679H232.014V15.6261H226.986ZM217.059 16.5959V15.6261H215.502L217.059 16.5959ZM222.801 15.6261V16.5448L224.281 15.6261H222.801ZM216.013 17.7953C216.438 17.7953 216.719 17.7613 216.855 17.6932C216.991 17.6252 217.059 17.472 217.059 17.2338V16.8C216.787 17.0892 216.438 17.421 216.013 17.7953Z" fill="white" stroke="#E72F00" stroke-width="0.5" stroke-miterlimit="10"/>
<path d="M206.264 1.5647V16.8511C206.264 18.076 206.162 18.9267 205.958 19.403C205.771 19.8624 205.32 20.1772 204.605 20.3473C203.891 20.5174 202.632 20.594 200.828 20.577C200.794 19.369 200.701 18.2717 200.548 17.2849H199.221V20.4749H194.984V17.2849H193.606C193.487 17.9995 193.3 18.6204 193.045 19.1479L192.739 19.8114C192.602 20.2027 192.432 20.5089 192.228 20.7301C191.446 20.3558 190.723 20.0496 190.059 19.8114C189.413 19.5562 188.758 19.3775 188.094 19.2754V20.6025H182.837V1.5647H194.321V10.369H188.094V18.9182C188.638 18.5269 189.038 18.1015 189.293 17.6422L189.472 17.2849H188.477V14.197H189.829V13.6356H188.477V10.7774H200.573V13.6356H199.221V14.197H200.573V15.4985C200.743 15.4815 200.854 15.4135 200.905 15.2944C200.973 15.1753 201.007 14.9456 201.007 14.6053V10.369H194.806V1.5647H206.264ZM190.085 4.37188H188.094V4.88227H190.085V4.37188ZM199.016 4.37188V4.88227H201.007V4.37188H199.016ZM190.085 7.38321V6.8473H188.094V7.38321H190.085ZM199.016 7.38321H201.007V6.8473H199.016V7.38321ZM194.984 14.197V13.6356H193.836L193.81 14.197H194.984Z" fill="white" stroke="#E72F00" stroke-width="0.5" stroke-miterlimit="10"/>
<path d="M179.596 15.6772C179.953 15.6431 180.642 15.5496 181.663 15.3964C181.272 16.06 181.008 16.766 180.872 17.5146C180.753 18.2632 180.642 19.2584 180.54 20.5004C177.478 20.6195 174.909 20.679 172.833 20.679C169.992 20.679 167.721 20.5429 166.019 20.2707C164.318 19.9985 162.829 19.5562 161.554 18.9437C160.737 19.4881 159.512 20.1516 157.879 20.9342L157.751 20.4238C157.462 19.1819 157.207 18.1781 156.985 17.4125C156.764 16.6299 156.501 15.8898 156.194 15.1923C156.62 15.0902 157.019 14.9541 157.394 14.784C157.768 14.6138 158.066 14.4437 158.287 14.2736V12.4106H156.756L156.781 8.19985H163.723V15.3964C163.859 15.4305 164.352 15.524 165.203 15.6772C164.675 14.9626 164.242 14.4182 163.901 14.0439C165.722 14.0439 167.415 13.8823 168.98 13.559H164.182V11.4409H167.346V11.007H164.361V9.32272H167.346V8.88888H166.071C164.914 8.88888 164.335 8.44654 164.335 7.56185V7.15354L164.08 7.94465C161.698 7.24711 159.231 6.67717 156.679 6.23482L158.185 1.8199C160.618 2.39834 162.668 2.95127 164.335 3.47868V1.5647H172.297V6.03066H167.704V6.13275C167.704 6.42197 167.729 6.5921 167.78 6.64314C167.831 6.67717 167.942 6.69418 168.112 6.69418C168.299 6.69418 168.435 6.69418 168.52 6.69418C168.742 6.69418 168.895 6.66016 168.98 6.5921C169.065 6.52405 169.107 6.37944 169.107 6.15826L172.323 6.61762C172.323 7.58737 172.034 8.25089 171.455 8.60817H171.583V9.32272H173.395V8.71025C172.901 8.5231 172.655 8.1403 172.655 7.56185V4.60156H176.942V4.16772H172.655V1.5647H180.693V6.03066H176.1V6.13275C176.1 6.35392 176.108 6.49853 176.125 6.56658C176.159 6.63463 176.244 6.67717 176.381 6.69418C176.517 6.69418 176.704 6.69418 176.942 6.69418C177.112 6.69418 177.24 6.66016 177.325 6.5921C177.41 6.52405 177.452 6.37944 177.452 6.15826L181 6.61762C181 7.40023 180.778 7.97868 180.336 8.35297C179.894 8.71025 179.341 8.88888 178.677 8.88888H177.605V9.32272H180.744V11.007H177.605V11.4409H180.949V13.559H175.819C177.35 13.8823 179.052 14.0439 180.923 14.0439C180.464 14.5203 180.021 15.0647 179.596 15.6772ZM168.597 4.60156V4.16772H165.305L165.152 4.60156H168.597ZM173.395 11.007H171.583V11.4409H173.395V11.007ZM172.399 14.7074L173.114 13.559H171.685L172.399 14.7074ZM172.501 16.0855C173.029 16.0855 173.803 16.0685 174.824 16.0344C174.177 15.8473 173.369 15.5921 172.399 15.2688C171.413 15.6091 170.605 15.8728 169.975 16.06C170.485 16.077 171.328 16.0855 172.501 16.0855Z" fill="white" stroke="#E72F00" stroke-width="0.5" stroke-miterlimit="10"/>
<path d="M147.237 9.11832C148.462 12.1467 151.49 14.1457 156.322 15.1155C155.522 16.0172 154.901 16.9104 154.459 17.7951C154.017 18.6797 153.515 19.8537 152.953 21.3168C151.116 20.7724 149.338 19.8451 147.62 18.5351C145.919 17.2081 144.549 15.5493 143.511 13.5588C142.473 15.5323 141.095 17.1826 139.377 18.5096C137.659 19.8366 135.889 20.7724 134.069 21.3168C133.507 19.8537 133.005 18.6797 132.563 17.7951C132.121 16.9104 131.5 16.0172 130.7 15.1155C135.515 14.1797 138.526 12.1807 139.734 9.11832H131.874V3.47844H140.372L140.398 1.13062L146.65 1.18166L146.625 3.47844H155.148V9.11832H147.237Z" fill="white" stroke="#E72F00" stroke-width="0.5" stroke-miterlimit="10"/>
<path d="M126.999 11.3644C127.527 11.7047 127.986 11.9684 128.378 12.1555C128.769 12.3427 129.194 12.4873 129.654 12.5894C129.926 14.0015 130.062 15.32 130.062 16.5449C130.062 17.7359 129.926 18.6461 129.654 19.2756C129.466 19.7179 129.245 20.0412 128.99 20.2453C128.735 20.4325 128.514 20.543 128.326 20.5771C128.139 20.5941 127.91 20.6026 127.637 20.6026H125.111C124.396 20.6026 123.844 20.543 123.452 20.424C123.078 20.2878 122.806 20.0667 122.636 19.7604C122.482 19.4372 122.406 18.9693 122.406 18.3568C122.406 18.1867 122.423 17.8465 122.457 17.3361L122.942 11.441L122.38 11.492C122.312 13.9589 122.168 15.8559 121.947 17.1829C121.725 18.493 121.419 19.7179 121.028 20.8578C119.429 20.3134 118.119 19.9221 117.098 19.6839L115.567 19.837L114.189 19.9901C114.086 17.3531 114.035 15.0988 114.035 13.2274L116.638 13.0998C116.638 14.9202 116.706 16.5109 116.843 17.872C117.183 17.1064 117.455 16.2727 117.659 15.371C117.863 14.4693 117.999 13.3209 118.068 11.9259L117.608 11.9769C117.54 11.1092 117.472 10.3862 117.404 9.80771C117.336 9.22926 117.217 8.5062 117.047 7.63853L118.297 7.56197L119.037 5.9287H116.74V3.65743L114.903 6.00526L116.026 5.85214C116.4 7.48541 116.672 8.7699 116.843 9.70563C117.03 10.6243 117.166 11.5346 117.251 12.4363L114.112 12.8446L114.061 12.2831L113.576 12.3597V20.7812H109.059V12.8701C108.004 12.9892 106.881 13.0913 105.69 13.1763C105.69 11.6451 105.622 10.3947 105.486 9.42491L107.298 9.37387L108.115 8.53172C107.672 8.07236 107.188 7.6045 106.66 7.12813C106.133 6.65176 105.682 6.27747 105.308 6.00526L106.992 2.50904L107.655 3.04496C108.047 2.50054 108.489 1.72644 108.982 0.722656L112.938 1.64137L112.504 2.22833C111.466 3.67445 110.701 4.70375 110.207 5.31622L110.539 5.6735C111.713 4.14231 112.793 2.59411 113.78 1.02889L117.251 2.02417H120.568V1.07993H125.239V2.02417H129.756V5.9287H127.893C128.811 6.79637 129.79 7.6045 130.827 8.35308C130.334 8.74438 129.815 9.24627 129.271 9.85875C128.743 10.4712 128.309 11.0582 127.969 11.6196L127.306 10.9816L127.025 11.0071L126.999 11.3644ZM123.605 5.9287L123.018 7.25573L124.218 7.17917C123.98 6.8389 123.809 6.58371 123.707 6.41357L125.57 5.9287H123.605ZM113.372 7.97028C112.896 8.54873 112.555 8.97406 112.351 9.24627L113.602 9.19523L113.372 7.97028ZM126.668 15.1924V15.2434C126.668 15.3625 126.693 15.4646 126.744 15.5497C126.812 15.6177 126.889 15.6517 126.974 15.6517C127.059 15.6517 127.136 15.6092 127.204 15.5241C127.272 15.4391 127.306 15.32 127.306 15.1669C127.306 14.3162 127.187 13.2444 126.948 11.9514L126.668 15.1924ZM106.022 13.457C106.362 13.457 106.89 13.44 107.604 13.406L108.625 13.3805C108.625 14.8947 108.6 16.1026 108.549 17.0043C108.515 17.889 108.396 18.9353 108.191 20.1432C108.072 20.1262 107.749 20.0922 107.222 20.0412C106.711 19.9731 106.099 19.9391 105.384 19.9391C105.656 18.8162 105.827 17.8039 105.895 16.9022C105.98 16.0005 106.022 14.8521 106.022 13.457Z" fill="white" stroke="#E72F00" stroke-width="0.5" stroke-miterlimit="10"/>
<path d="M102.041 13.9164C102.382 14.4438 102.815 14.8521 103.343 15.1414C103.87 15.4306 104.525 15.6177 105.308 15.7028C104.934 16.4173 104.61 17.1744 104.338 17.9741C104.083 18.7567 103.819 19.7519 103.547 20.9599C102.594 20.3814 101.744 19.6073 100.995 18.6376C101.012 18.7226 101.021 18.8417 101.021 18.9948C101.021 19.9476 100.544 20.475 99.5915 20.5771C98.5877 20.6451 97.669 20.6792 96.8353 20.6792C95.9676 20.6792 95.134 20.6451 94.3344 20.5771C93.7729 20.526 93.3561 20.3984 93.0839 20.1943C92.8287 19.9731 92.7011 19.6584 92.7011 19.25V19.1735C92.0886 19.803 91.3145 20.3984 90.3788 20.9599C90.0896 19.5818 89.7919 18.4674 89.4856 17.6168L89.6387 19.148L89.6898 19.6839L88.4393 19.837L87.2654 19.9901C87.1803 17.0638 87.1378 14.8096 87.1378 13.2274L89.3325 13.0998C89.3325 14.2567 89.341 15.0818 89.358 15.5752C90.5149 15.32 91.3571 14.7671 91.8845 13.9164H89.6387V12.4363L87.2144 12.819L87.1633 12.2831L86.6784 12.3597V20.7812H82.9781V12.8701C82.0764 12.9892 81.1236 13.0913 80.1198 13.1763C80.1198 11.6451 80.0518 10.3947 79.9157 9.42491L81.4724 9.37388L82.1359 8.53172C81.7786 8.08938 81.3788 7.63002 80.9365 7.15365C80.4941 6.67728 80.1113 6.29448 79.7881 6.00526L81.2172 2.50904C81.5745 2.86632 81.7531 3.04496 81.7531 3.04496C82.1614 2.36443 82.5442 1.59033 82.9015 0.722656L86.2191 1.64137C85.1813 3.34269 84.4072 4.56764 83.8968 5.31622L84.203 5.6735C85.2238 4.14231 86.1255 2.59411 86.9081 1.02889L89.9705 2.07521H94.4365L94.6151 1.48825H98.8259L98.6472 2.07521H104.032V13.9164H102.041ZM88.8221 5.85214L89.2815 8.68484C89.3835 9.19524 89.5026 9.89278 89.6387 10.7775V3.30016L87.8779 6.00526L88.8221 5.85214ZM93.4922 5.08655V5.57142L94.4109 5.18862C94.7682 5.37577 95.0319 5.5459 95.2021 5.69902C95.3382 5.5459 95.4743 5.34174 95.6104 5.08655H93.4922ZM100.229 5.46934V5.08655H97.6775L97.5499 5.46934H100.229ZM93.4922 6.92397C93.9176 6.73683 94.1898 6.60923 94.3089 6.54117C94.0707 6.35403 93.7985 6.16688 93.4922 5.97974V6.92397ZM97.7796 7.79165C98.0177 7.62151 98.2474 7.40034 98.4686 7.12813H96.8098L97.7796 7.79165ZM94.3854 8.78692C94.1642 8.46367 93.8665 8.08938 93.4922 7.66405V8.86348L94.3854 8.78692ZM86.704 9.19524C86.6189 8.65081 86.5593 8.26802 86.5253 8.04684L86.2191 8.5062C86.151 8.60828 86.0745 8.71887 85.9894 8.83796C85.9043 8.95705 85.8108 9.09316 85.7087 9.24627L86.704 9.19524ZM95.6614 8.17444C95.4062 8.39562 95.1425 8.59127 94.8703 8.7614C95.3637 8.71036 95.7805 8.6338 96.1208 8.53172L95.6614 8.17444ZM99.8722 9.57803L99.03 10.5733H100.229V8.45516C100.025 8.71036 99.7701 8.98257 99.4639 9.2718L99.8722 9.57803ZM93.4922 10.5733H94.1302C93.9601 10.131 93.7474 9.70563 93.4922 9.29731V10.5733ZM98.2644 10.0884C98.0603 10.2075 97.72 10.3691 97.2436 10.5733H98.7748L98.2644 10.0884ZM80.375 13.457C80.6983 13.457 81.1491 13.44 81.7276 13.406L82.5442 13.3805V14.2482C82.5442 15.371 82.5272 16.3663 82.4932 17.234C82.4592 18.1017 82.3741 19.0714 82.238 20.1432C82.1019 20.1262 81.8127 20.0922 81.3703 20.0412C80.945 19.9731 80.4431 19.9391 79.8646 19.9391C80.0858 18.8162 80.2219 17.8039 80.273 16.9022C80.341 15.9835 80.375 14.8351 80.375 13.457ZM96.427 13.9164H92.8542C93.6709 14.4268 94.3854 14.8181 94.9979 15.0903H95.5849C95.4487 14.9202 95.1935 14.648 94.8193 14.2737L96.427 13.9164ZM99.5149 14.5289C99.9743 14.3417 100.434 14.1376 100.893 13.9164H98.7493C99.1746 14.2737 99.4298 14.4778 99.5149 14.5289ZM97.6009 16.647C97.8391 16.63 97.9582 16.5364 97.9582 16.3663C97.9582 16.3493 97.9242 16.1877 97.8561 15.8814L96.5546 16.2387L95.9421 15.4986L95.8145 16.2132C95.7975 16.2642 95.789 16.3408 95.789 16.4429C95.789 16.613 95.8741 16.6981 96.0442 16.6981C96.9289 16.6981 97.4478 16.681 97.6009 16.647ZM98.0348 15.8559C98.341 15.9069 98.6387 15.9325 98.9279 15.9325C99.1491 15.9325 99.3193 15.924 99.4383 15.9069L99.2852 15.4986L98.0348 15.8559Z" fill="white" stroke="#E72F00" stroke-width="0.5" stroke-miterlimit="10"/>
</svg>
